<?xml version="1.0" standalone="no"?><!DOCTYPE svg PUBLIC "-//W3C//DTD SVG 1.1//EN" "http://www.w3.org/Graphics/SVG/1.1/DTD/svg11.dtd"><svg t="1768272973602" class="icon" viewBox="0 0 1024 1024" version="1.1" xmlns="http://www.w3.org/2000/svg" p-id="12391" xmlns:xlink="http://www.w3.org/1999/xlink" width="200" height="200"><path d="M0 512a512 512 0 1 0 1024 0A512 512 0 1 0 0 512z" fill="#FBEBC6" opacity=".5" p-id="12392"></path><path d="M559.818 437.14l22.28 81.64a59.57 59.57 0 0 1 1.8 9.635c5.74 56.615-11.327 80.477-54.381 80.477-60.044 0-87.77-63.752-62.65-109.118a122.508 122.508 0 0 1 92.95-62.635z m184.956 153.956c-0.047 128.031-133.12 206.709-263.184 179.898C373 748.622 298.077 666.515 281.71 560.423c-18.076-117.217 56.971-231.75 199.835-260.903a15.515 15.515 0 1 0-6.206-30.41c-159.45 32.551-244.83 162.832-224.272 296.045 18.308 118.66 102.742 211.177 224.272 236.234 147.44 30.41 300.42-60.044 300.42-211.503-9.713-122.011-97.854-180.876-192.42-184.429l-22.745-83.3a44.435 44.435 0 0 1 61.596-52.007l45.443 21.1a15.515 15.515 0 0 0 13.064-28.144l-45.444-21.1a75.466 75.466 0 0 0-104.587 88.327l20.914 76.614a153.553 153.553 0 0 0-111.864 77.808c-35.67 64.404 3.817 155.183 89.802 155.183 63.24 0 92.703-41.177 85.24-114.642a90.469 90.469 0 0 0-2.73-14.677l-20.062-73.542c76.691 6.532 144.974 55.979 152.824 154.035z" fill="#522C00" p-id="12393"></path></svg>