<?xml version="1.0" standalone="no"?><!DOCTYPE svg PUBLIC "-//W3C//DTD SVG 1.1//EN" "http://www.w3.org/Graphics/SVG/1.1/DTD/svg11.dtd"><svg t="1772169018260" class="icon" viewBox="0 0 1024 1024" version="1.1" xmlns="http://www.w3.org/2000/svg" p-id="15346" xmlns:xlink="http://www.w3.org/1999/xlink" width="200" height="200"><path d="M0 0m227.555556 0l568.888888 0q227.555556 0 227.555556 227.555556l0 568.888888q0 227.555556-227.555556 227.555556l-568.888888 0q-227.555556 0-227.555556-227.555556l0-568.888888q0-227.555556 227.555556-227.555556Z" fill="#08CE93" p-id="15347"></path><path d="M746.837333 477.752889c-2.958222-0.455111-5.575111-2.673778-7.850666-6.712889-2.275556-3.982222-4.096-11.434667-5.347556-22.186667-2.104889-17.521778-7.452444-30.435556-16.099555-38.684444-8.533333-8.305778-21.902222-14.222222-39.936-17.863111a112.071111 112.071111 0 0 1-50.062223-24.576 378.595556 378.595556 0 0 1-36.181333-34.645334c-9.216-9.443556-16.327111-12.8-21.390222-10.069333-5.006222 2.673778-7.566222 7.623111-7.566222 14.791111v92.16c0 25.144889-0.056889 52.337778-0.284445 81.464889-0.227556 29.127111-0.341333 56.718222-0.341333 82.773333V701.212444c0.455111 10.808889-1.137778 22.755556-4.721778 36.010667-3.527111 13.198222-10.24 25.656889-20.138667 37.319111-9.841778 11.662222-22.983111 21.617778-39.310222 29.980445-16.384 8.305778-36.750222 13.084444-61.041778 14.449777a124.017778 124.017778 0 0 1-67.072-14.108444 126.179556 126.179556 0 0 1-46.250666-40.732444 93.240889 93.240889 0 0 1-16.042667-53.873778c0.227556-19.456 8.078222-37.774222 23.608889-54.840889 15.530667-17.066667 32.312889-28.899556 50.346667-35.669333a168.846222 168.846222 0 0 1 97.28-7.395556c13.198222 3.185778 22.926222 6.087111 29.240888 8.760889V430.648889c0-52.906667 0.227556-112.64 0.568889-178.972445 0-13.084444 3.185778-23.665778 9.500445-31.971555a36.124444 36.124444 0 0 1 25.144889-14.506667 25.031111 25.031111 0 0 1 21.731555 5.688889c5.688889 5.233778 11.434667 12.401778 17.294222 21.617778 5.916444 9.159111 13.084444 19.569778 21.731556 31.288889 8.590222 11.662222 20.252444 23.096889 34.929778 34.304 12.572444 10.296889 23.608889 17.692444 32.995555 22.186666 9.500444 4.551111 18.318222 8.647111 26.510223 12.515556 8.135111 3.754667 16.213333 8.362667 24.177777 13.767111 7.964444 5.347556 16.839111 14.108444 26.453334 26.168889 9.671111 11.719111 15.530667 23.836444 17.635555 36.408889 2.104889 12.515556 2.218667 24.007111 0.284445 34.304-1.877333 10.296889-4.892444 18.773333-9.102223 25.258667-4.209778 6.485333-7.736889 9.500444-10.695111 9.102222z" fill="#FFFFFF" p-id="15348"></path></svg>